M48
; DRILL file {KiCad (5.1.10)-1} date 01/17/22 16:40:04
; FORMAT={3:3/ absolute / metric / keep zeros}
; #@! TF.CreationDate,2022-01-17T16:40:04+07:00
; #@! TF.GenerationSoftware,Kicad,Pcbnew,(5.1.10)-1
; #@! TF.FileFunction,Plated,1,2,PTH
FMAT,2
METRIC
T1C0.400
T2C0.700
T3C1.000
T4C1.075
%
G90
G05
T1
X092888Y-094156
X093523Y-092634
X094920Y-096317
X096952Y-093142
T2
X090221Y-087554
X093246Y-095959
X102540Y-090094
X103810Y-091364
X104671Y-086157
X109271Y-086157
T3
X090602Y-098603
X093142Y-098603
X095682Y-098603
X098222Y-098603
X103302Y-098603
X105842Y-098603
X108382Y-098603
T4
X093396Y-086157
X095936Y-086157
X098476Y-086157
X101016Y-086157
T0
M30
