%TF.GenerationSoftware,KiCad,Pcbnew,(5.1.10)-1*%
%TF.CreationDate,2022-01-18T16:23:03+07:00*%
%TF.ProjectId,DC5V_DC5V3V3,44433556-5f44-4433-9556-3356332e6b69,rev?*%
%TF.SameCoordinates,Original*%
%TF.FileFunction,Soldermask,Top*%
%TF.FilePolarity,Negative*%
%FSLAX46Y46*%
G04 Gerber Fmt 4.6, Leading zero omitted, Abs format (unit mm)*
G04 Created by KiCad (PCBNEW (5.1.10)-1) date 2022-01-18 16:23:03*
%MOMM*%
%LPD*%
G01*
G04 APERTURE LIST*
%ADD10O,1.700000X1.700000*%
%ADD11R,1.700000X1.700000*%
%ADD12R,1.500000X2.000000*%
%ADD13R,3.800000X2.000000*%
%ADD14R,1.750000X2.250000*%
%ADD15O,1.750000X2.250000*%
G04 APERTURE END LIST*
D10*
%TO.C,J1*%
X98222000Y-98603000D03*
X95682000Y-98603000D03*
X93142000Y-98603000D03*
D11*
X90602000Y-98603000D03*
%TD*%
D10*
%TO.C,J2*%
X108382000Y-98603000D03*
X105842000Y-98603000D03*
D11*
X103302000Y-98603000D03*
%TD*%
D12*
%TO.C,U1*%
X109271000Y-86157000D03*
X104671000Y-86157000D03*
X106971000Y-86157000D03*
D13*
X106971000Y-92457000D03*
%TD*%
D14*
%TO.C,PS1*%
X93396000Y-86157000D03*
D15*
X95936000Y-86157000D03*
X98476000Y-86157000D03*
X101016000Y-86157000D03*
%TD*%
%TO.C,C16*%
G36*
G01*
X106561000Y-96440000D02*
X106561000Y-95940000D01*
G75*
G02*
X106786000Y-95715000I225000J0D01*
G01*
X107236000Y-95715000D01*
G75*
G02*
X107461000Y-95940000I0J-225000D01*
G01*
X107461000Y-96440000D01*
G75*
G02*
X107236000Y-96665000I-225000J0D01*
G01*
X106786000Y-96665000D01*
G75*
G02*
X106561000Y-96440000I0J225000D01*
G01*
G37*
G36*
G01*
X105011000Y-96440000D02*
X105011000Y-95940000D01*
G75*
G02*
X105236000Y-95715000I225000J0D01*
G01*
X105686000Y-95715000D01*
G75*
G02*
X105911000Y-95940000I0J-225000D01*
G01*
X105911000Y-96440000D01*
G75*
G02*
X105686000Y-96665000I-225000J0D01*
G01*
X105236000Y-96665000D01*
G75*
G02*
X105011000Y-96440000I0J225000D01*
G01*
G37*
%TD*%
%TO.C,C15*%
G36*
G01*
X106535000Y-94789000D02*
X106535000Y-94289000D01*
G75*
G02*
X106760000Y-94064000I225000J0D01*
G01*
X107210000Y-94064000D01*
G75*
G02*
X107435000Y-94289000I0J-225000D01*
G01*
X107435000Y-94789000D01*
G75*
G02*
X107210000Y-95014000I-225000J0D01*
G01*
X106760000Y-95014000D01*
G75*
G02*
X106535000Y-94789000I0J225000D01*
G01*
G37*
G36*
G01*
X104985000Y-94789000D02*
X104985000Y-94289000D01*
G75*
G02*
X105210000Y-94064000I225000J0D01*
G01*
X105660000Y-94064000D01*
G75*
G02*
X105885000Y-94289000I0J-225000D01*
G01*
X105885000Y-94789000D01*
G75*
G02*
X105660000Y-95014000I-225000J0D01*
G01*
X105210000Y-95014000D01*
G75*
G02*
X104985000Y-94789000I0J225000D01*
G01*
G37*
%TD*%
%TO.C,C8*%
G36*
G01*
X95914500Y-96199000D02*
X95914500Y-94149000D01*
G75*
G02*
X96164500Y-93899000I250000J0D01*
G01*
X97739500Y-93899000D01*
G75*
G02*
X97989500Y-94149000I0J-250000D01*
G01*
X97989500Y-96199000D01*
G75*
G02*
X97739500Y-96449000I-250000J0D01*
G01*
X96164500Y-96449000D01*
G75*
G02*
X95914500Y-96199000I0J250000D01*
G01*
G37*
G36*
G01*
X89689500Y-96199000D02*
X89689500Y-94149000D01*
G75*
G02*
X89939500Y-93899000I250000J0D01*
G01*
X91514500Y-93899000D01*
G75*
G02*
X91764500Y-94149000I0J-250000D01*
G01*
X91764500Y-96199000D01*
G75*
G02*
X91514500Y-96449000I-250000J0D01*
G01*
X89939500Y-96449000D01*
G75*
G02*
X89689500Y-96199000I0J250000D01*
G01*
G37*
%TD*%
%TO.C,C7*%
G36*
G01*
X95916500Y-91246000D02*
X95916500Y-89196000D01*
G75*
G02*
X96166500Y-88946000I250000J0D01*
G01*
X97741500Y-88946000D01*
G75*
G02*
X97991500Y-89196000I0J-250000D01*
G01*
X97991500Y-91246000D01*
G75*
G02*
X97741500Y-91496000I-250000J0D01*
G01*
X96166500Y-91496000D01*
G75*
G02*
X95916500Y-91246000I0J250000D01*
G01*
G37*
G36*
G01*
X89691500Y-91246000D02*
X89691500Y-89196000D01*
G75*
G02*
X89941500Y-88946000I250000J0D01*
G01*
X91516500Y-88946000D01*
G75*
G02*
X91766500Y-89196000I0J-250000D01*
G01*
X91766500Y-91246000D01*
G75*
G02*
X91516500Y-91496000I-250000J0D01*
G01*
X89941500Y-91496000D01*
G75*
G02*
X89691500Y-91246000I0J250000D01*
G01*
G37*
%TD*%
M02*
