%TF.GenerationSoftware,KiCad,Pcbnew,(5.1.10)-1*%
%TF.CreationDate,2022-01-17T16:40:02+07:00*%
%TF.ProjectId,DC5V_DC5V3V3,44433556-5f44-4433-9556-3356332e6b69,rev?*%
%TF.SameCoordinates,Original*%
%TF.FileFunction,Paste,Bot*%
%TF.FilePolarity,Positive*%
%FSLAX46Y46*%
G04 Gerber Fmt 4.6, Leading zero omitted, Abs format (unit mm)*
G04 Created by KiCad (PCBNEW (5.1.10)-1) date 2022-01-17 16:40:02*
%MOMM*%
%LPD*%
G01*
G04 APERTURE LIST*
%ADD10R,0.950000X0.450000*%
%ADD11R,0.800000X0.900000*%
G04 APERTURE END LIST*
D10*
%TO.C,D1*%
X92421000Y-93284000D03*
X92421000Y-92634000D03*
X92421000Y-91984000D03*
X90221000Y-91984000D03*
X90221000Y-92634000D03*
X90221000Y-93284000D03*
%TD*%
%TO.C,C12*%
G36*
G01*
X108171000Y-84388000D02*
X108171000Y-82338000D01*
G75*
G02*
X108421000Y-82088000I250000J0D01*
G01*
X109996000Y-82088000D01*
G75*
G02*
X110246000Y-82338000I0J-250000D01*
G01*
X110246000Y-84388000D01*
G75*
G02*
X109996000Y-84638000I-250000J0D01*
G01*
X108421000Y-84638000D01*
G75*
G02*
X108171000Y-84388000I0J250000D01*
G01*
G37*
G36*
G01*
X101946000Y-84388000D02*
X101946000Y-82338000D01*
G75*
G02*
X102196000Y-82088000I250000J0D01*
G01*
X103771000Y-82088000D01*
G75*
G02*
X104021000Y-82338000I0J-250000D01*
G01*
X104021000Y-84388000D01*
G75*
G02*
X103771000Y-84638000I-250000J0D01*
G01*
X102196000Y-84638000D01*
G75*
G02*
X101946000Y-84388000I0J250000D01*
G01*
G37*
%TD*%
%TO.C,C11*%
G36*
G01*
X95787500Y-84388000D02*
X95787500Y-82338000D01*
G75*
G02*
X96037500Y-82088000I250000J0D01*
G01*
X97612500Y-82088000D01*
G75*
G02*
X97862500Y-82338000I0J-250000D01*
G01*
X97862500Y-84388000D01*
G75*
G02*
X97612500Y-84638000I-250000J0D01*
G01*
X96037500Y-84638000D01*
G75*
G02*
X95787500Y-84388000I0J250000D01*
G01*
G37*
G36*
G01*
X89562500Y-84388000D02*
X89562500Y-82338000D01*
G75*
G02*
X89812500Y-82088000I250000J0D01*
G01*
X91387500Y-82088000D01*
G75*
G02*
X91637500Y-82338000I0J-250000D01*
G01*
X91637500Y-84388000D01*
G75*
G02*
X91387500Y-84638000I-250000J0D01*
G01*
X89812500Y-84638000D01*
G75*
G02*
X89562500Y-84388000I0J250000D01*
G01*
G37*
%TD*%
%TO.C,C13*%
G36*
G01*
X105250000Y-88193000D02*
X105250000Y-88693000D01*
G75*
G02*
X105025000Y-88918000I-225000J0D01*
G01*
X104575000Y-88918000D01*
G75*
G02*
X104350000Y-88693000I0J225000D01*
G01*
X104350000Y-88193000D01*
G75*
G02*
X104575000Y-87968000I225000J0D01*
G01*
X105025000Y-87968000D01*
G75*
G02*
X105250000Y-88193000I0J-225000D01*
G01*
G37*
G36*
G01*
X106800000Y-88193000D02*
X106800000Y-88693000D01*
G75*
G02*
X106575000Y-88918000I-225000J0D01*
G01*
X106125000Y-88918000D01*
G75*
G02*
X105900000Y-88693000I0J225000D01*
G01*
X105900000Y-88193000D01*
G75*
G02*
X106125000Y-87968000I225000J0D01*
G01*
X106575000Y-87968000D01*
G75*
G02*
X106800000Y-88193000I0J-225000D01*
G01*
G37*
%TD*%
%TO.C,C14*%
G36*
G01*
X105250000Y-89844000D02*
X105250000Y-90344000D01*
G75*
G02*
X105025000Y-90569000I-225000J0D01*
G01*
X104575000Y-90569000D01*
G75*
G02*
X104350000Y-90344000I0J225000D01*
G01*
X104350000Y-89844000D01*
G75*
G02*
X104575000Y-89619000I225000J0D01*
G01*
X105025000Y-89619000D01*
G75*
G02*
X105250000Y-89844000I0J-225000D01*
G01*
G37*
G36*
G01*
X106800000Y-89844000D02*
X106800000Y-90344000D01*
G75*
G02*
X106575000Y-90569000I-225000J0D01*
G01*
X106125000Y-90569000D01*
G75*
G02*
X105900000Y-90344000I0J225000D01*
G01*
X105900000Y-89844000D01*
G75*
G02*
X106125000Y-89619000I225000J0D01*
G01*
X106575000Y-89619000D01*
G75*
G02*
X106800000Y-89844000I0J-225000D01*
G01*
G37*
%TD*%
%TO.C,R2*%
G36*
G01*
X99513000Y-94813000D02*
X98963000Y-94813000D01*
G75*
G02*
X98763000Y-94613000I0J200000D01*
G01*
X98763000Y-94213000D01*
G75*
G02*
X98963000Y-94013000I200000J0D01*
G01*
X99513000Y-94013000D01*
G75*
G02*
X99713000Y-94213000I0J-200000D01*
G01*
X99713000Y-94613000D01*
G75*
G02*
X99513000Y-94813000I-200000J0D01*
G01*
G37*
G36*
G01*
X99513000Y-96463000D02*
X98963000Y-96463000D01*
G75*
G02*
X98763000Y-96263000I0J200000D01*
G01*
X98763000Y-95863000D01*
G75*
G02*
X98963000Y-95663000I200000J0D01*
G01*
X99513000Y-95663000D01*
G75*
G02*
X99713000Y-95863000I0J-200000D01*
G01*
X99713000Y-96263000D01*
G75*
G02*
X99513000Y-96463000I-200000J0D01*
G01*
G37*
%TD*%
%TO.C,R1*%
G36*
G01*
X96995500Y-92782000D02*
X96995500Y-92232000D01*
G75*
G02*
X97195500Y-92032000I200000J0D01*
G01*
X97595500Y-92032000D01*
G75*
G02*
X97795500Y-92232000I0J-200000D01*
G01*
X97795500Y-92782000D01*
G75*
G02*
X97595500Y-92982000I-200000J0D01*
G01*
X97195500Y-92982000D01*
G75*
G02*
X96995500Y-92782000I0J200000D01*
G01*
G37*
G36*
G01*
X95345500Y-92782000D02*
X95345500Y-92232000D01*
G75*
G02*
X95545500Y-92032000I200000J0D01*
G01*
X95945500Y-92032000D01*
G75*
G02*
X96145500Y-92232000I0J-200000D01*
G01*
X96145500Y-92782000D01*
G75*
G02*
X95945500Y-92982000I-200000J0D01*
G01*
X95545500Y-92982000D01*
G75*
G02*
X95345500Y-92782000I0J200000D01*
G01*
G37*
%TD*%
D11*
%TO.C,Q1*%
X96698000Y-96063000D03*
X97648000Y-94063000D03*
X95748000Y-94063000D03*
%TD*%
%TO.C,C10*%
G36*
G01*
X100566000Y-90344000D02*
X100566000Y-89844000D01*
G75*
G02*
X100791000Y-89619000I225000J0D01*
G01*
X101241000Y-89619000D01*
G75*
G02*
X101466000Y-89844000I0J-225000D01*
G01*
X101466000Y-90344000D01*
G75*
G02*
X101241000Y-90569000I-225000J0D01*
G01*
X100791000Y-90569000D01*
G75*
G02*
X100566000Y-90344000I0J225000D01*
G01*
G37*
G36*
G01*
X99016000Y-90344000D02*
X99016000Y-89844000D01*
G75*
G02*
X99241000Y-89619000I225000J0D01*
G01*
X99691000Y-89619000D01*
G75*
G02*
X99916000Y-89844000I0J-225000D01*
G01*
X99916000Y-90344000D01*
G75*
G02*
X99691000Y-90569000I-225000J0D01*
G01*
X99241000Y-90569000D01*
G75*
G02*
X99016000Y-90344000I0J225000D01*
G01*
G37*
%TD*%
%TO.C,C9*%
G36*
G01*
X100566000Y-88693000D02*
X100566000Y-88193000D01*
G75*
G02*
X100791000Y-87968000I225000J0D01*
G01*
X101241000Y-87968000D01*
G75*
G02*
X101466000Y-88193000I0J-225000D01*
G01*
X101466000Y-88693000D01*
G75*
G02*
X101241000Y-88918000I-225000J0D01*
G01*
X100791000Y-88918000D01*
G75*
G02*
X100566000Y-88693000I0J225000D01*
G01*
G37*
G36*
G01*
X99016000Y-88693000D02*
X99016000Y-88193000D01*
G75*
G02*
X99241000Y-87968000I225000J0D01*
G01*
X99691000Y-87968000D01*
G75*
G02*
X99916000Y-88193000I0J-225000D01*
G01*
X99916000Y-88693000D01*
G75*
G02*
X99691000Y-88918000I-225000J0D01*
G01*
X99241000Y-88918000D01*
G75*
G02*
X99016000Y-88693000I0J225000D01*
G01*
G37*
%TD*%
%TO.C,C6*%
G36*
G01*
X90658000Y-88574000D02*
X90658000Y-89074000D01*
G75*
G02*
X90433000Y-89299000I-225000J0D01*
G01*
X89983000Y-89299000D01*
G75*
G02*
X89758000Y-89074000I0J225000D01*
G01*
X89758000Y-88574000D01*
G75*
G02*
X89983000Y-88349000I225000J0D01*
G01*
X90433000Y-88349000D01*
G75*
G02*
X90658000Y-88574000I0J-225000D01*
G01*
G37*
G36*
G01*
X92208000Y-88574000D02*
X92208000Y-89074000D01*
G75*
G02*
X91983000Y-89299000I-225000J0D01*
G01*
X91533000Y-89299000D01*
G75*
G02*
X91308000Y-89074000I0J225000D01*
G01*
X91308000Y-88574000D01*
G75*
G02*
X91533000Y-88349000I225000J0D01*
G01*
X91983000Y-88349000D01*
G75*
G02*
X92208000Y-88574000I0J-225000D01*
G01*
G37*
%TD*%
%TO.C,C5*%
G36*
G01*
X90645000Y-90225000D02*
X90645000Y-90725000D01*
G75*
G02*
X90420000Y-90950000I-225000J0D01*
G01*
X89970000Y-90950000D01*
G75*
G02*
X89745000Y-90725000I0J225000D01*
G01*
X89745000Y-90225000D01*
G75*
G02*
X89970000Y-90000000I225000J0D01*
G01*
X90420000Y-90000000D01*
G75*
G02*
X90645000Y-90225000I0J-225000D01*
G01*
G37*
G36*
G01*
X92195000Y-90225000D02*
X92195000Y-90725000D01*
G75*
G02*
X91970000Y-90950000I-225000J0D01*
G01*
X91520000Y-90950000D01*
G75*
G02*
X91295000Y-90725000I0J225000D01*
G01*
X91295000Y-90225000D01*
G75*
G02*
X91520000Y-90000000I225000J0D01*
G01*
X91970000Y-90000000D01*
G75*
G02*
X92195000Y-90225000I0J-225000D01*
G01*
G37*
%TD*%
%TO.C,C4*%
G36*
G01*
X94369000Y-88693000D02*
X94369000Y-88193000D01*
G75*
G02*
X94594000Y-87968000I225000J0D01*
G01*
X95044000Y-87968000D01*
G75*
G02*
X95269000Y-88193000I0J-225000D01*
G01*
X95269000Y-88693000D01*
G75*
G02*
X95044000Y-88918000I-225000J0D01*
G01*
X94594000Y-88918000D01*
G75*
G02*
X94369000Y-88693000I0J225000D01*
G01*
G37*
G36*
G01*
X92819000Y-88693000D02*
X92819000Y-88193000D01*
G75*
G02*
X93044000Y-87968000I225000J0D01*
G01*
X93494000Y-87968000D01*
G75*
G02*
X93719000Y-88193000I0J-225000D01*
G01*
X93719000Y-88693000D01*
G75*
G02*
X93494000Y-88918000I-225000J0D01*
G01*
X93044000Y-88918000D01*
G75*
G02*
X92819000Y-88693000I0J225000D01*
G01*
G37*
%TD*%
%TO.C,C3*%
G36*
G01*
X90645000Y-94543000D02*
X90645000Y-95043000D01*
G75*
G02*
X90420000Y-95268000I-225000J0D01*
G01*
X89970000Y-95268000D01*
G75*
G02*
X89745000Y-95043000I0J225000D01*
G01*
X89745000Y-94543000D01*
G75*
G02*
X89970000Y-94318000I225000J0D01*
G01*
X90420000Y-94318000D01*
G75*
G02*
X90645000Y-94543000I0J-225000D01*
G01*
G37*
G36*
G01*
X92195000Y-94543000D02*
X92195000Y-95043000D01*
G75*
G02*
X91970000Y-95268000I-225000J0D01*
G01*
X91520000Y-95268000D01*
G75*
G02*
X91295000Y-95043000I0J225000D01*
G01*
X91295000Y-94543000D01*
G75*
G02*
X91520000Y-94318000I225000J0D01*
G01*
X91970000Y-94318000D01*
G75*
G02*
X92195000Y-94543000I0J-225000D01*
G01*
G37*
%TD*%
%TO.C,C2*%
G36*
G01*
X94369000Y-90344000D02*
X94369000Y-89844000D01*
G75*
G02*
X94594000Y-89619000I225000J0D01*
G01*
X95044000Y-89619000D01*
G75*
G02*
X95269000Y-89844000I0J-225000D01*
G01*
X95269000Y-90344000D01*
G75*
G02*
X95044000Y-90569000I-225000J0D01*
G01*
X94594000Y-90569000D01*
G75*
G02*
X94369000Y-90344000I0J225000D01*
G01*
G37*
G36*
G01*
X92819000Y-90344000D02*
X92819000Y-89844000D01*
G75*
G02*
X93044000Y-89619000I225000J0D01*
G01*
X93494000Y-89619000D01*
G75*
G02*
X93719000Y-89844000I0J-225000D01*
G01*
X93719000Y-90344000D01*
G75*
G02*
X93494000Y-90569000I-225000J0D01*
G01*
X93044000Y-90569000D01*
G75*
G02*
X92819000Y-90344000I0J225000D01*
G01*
G37*
%TD*%
%TO.C,C1*%
G36*
G01*
X90645000Y-96194000D02*
X90645000Y-96694000D01*
G75*
G02*
X90420000Y-96919000I-225000J0D01*
G01*
X89970000Y-96919000D01*
G75*
G02*
X89745000Y-96694000I0J225000D01*
G01*
X89745000Y-96194000D01*
G75*
G02*
X89970000Y-95969000I225000J0D01*
G01*
X90420000Y-95969000D01*
G75*
G02*
X90645000Y-96194000I0J-225000D01*
G01*
G37*
G36*
G01*
X92195000Y-96194000D02*
X92195000Y-96694000D01*
G75*
G02*
X91970000Y-96919000I-225000J0D01*
G01*
X91520000Y-96919000D01*
G75*
G02*
X91295000Y-96694000I0J225000D01*
G01*
X91295000Y-96194000D01*
G75*
G02*
X91520000Y-95969000I225000J0D01*
G01*
X91970000Y-95969000D01*
G75*
G02*
X92195000Y-96194000I0J-225000D01*
G01*
G37*
%TD*%
M02*
