%TF.GenerationSoftware,KiCad,Pcbnew,(5.1.10)-1*%
%TF.CreationDate,2022-01-17T16:40:02+07:00*%
%TF.ProjectId,DC5V_DC5V3V3,44433556-5f44-4433-9556-3356332e6b69,rev?*%
%TF.SameCoordinates,Original*%
%TF.FileFunction,Copper,L1,Top*%
%TF.FilePolarity,Positive*%
%FSLAX46Y46*%
G04 Gerber Fmt 4.6, Leading zero omitted, Abs format (unit mm)*
G04 Created by KiCad (PCBNEW (5.1.10)-1) date 2022-01-17 16:40:02*
%MOMM*%
%LPD*%
G01*
G04 APERTURE LIST*
%TA.AperFunction,NonConductor*%
%ADD10C,0.300000*%
%TD*%
%TA.AperFunction,ComponentPad*%
%ADD11O,1.700000X1.700000*%
%TD*%
%TA.AperFunction,ComponentPad*%
%ADD12R,1.700000X1.700000*%
%TD*%
%TA.AperFunction,SMDPad,CuDef*%
%ADD13R,1.500000X2.000000*%
%TD*%
%TA.AperFunction,SMDPad,CuDef*%
%ADD14R,3.800000X2.000000*%
%TD*%
%TA.AperFunction,ComponentPad*%
%ADD15R,1.750000X2.250000*%
%TD*%
%TA.AperFunction,ComponentPad*%
%ADD16O,1.750000X2.250000*%
%TD*%
%TA.AperFunction,ViaPad*%
%ADD17C,0.800000*%
%TD*%
%TA.AperFunction,ViaPad*%
%ADD18C,1.200000*%
%TD*%
%TA.AperFunction,Conductor*%
%ADD19C,0.800000*%
%TD*%
%TA.AperFunction,Conductor*%
%ADD20C,0.700000*%
%TD*%
%TA.AperFunction,Conductor*%
%ADD21C,0.400000*%
%TD*%
G04 APERTURE END LIST*
D10*
X107814571Y-82787571D02*
X108171714Y-83787571D01*
X108528857Y-82787571D01*
X108957428Y-82287571D02*
X109886000Y-82287571D01*
X109386000Y-82859000D01*
X109600285Y-82859000D01*
X109743142Y-82930428D01*
X109814571Y-83001857D01*
X109886000Y-83144714D01*
X109886000Y-83501857D01*
X109814571Y-83644714D01*
X109743142Y-83716142D01*
X109600285Y-83787571D01*
X109171714Y-83787571D01*
X109028857Y-83716142D01*
X108957428Y-83644714D01*
D11*
%TO.P,J2,3*%
%TO.N,+3.3VP*%
X108382000Y-98603000D03*
%TO.P,J2,2*%
%TO.N,GND2*%
X105842000Y-98603000D03*
D12*
%TO.P,J2,1*%
%TO.N,+5VP*%
X103302000Y-98603000D03*
%TD*%
D11*
%TO.P,J1,4*%
%TO.N,/+5V_state*%
X98222000Y-98603000D03*
%TO.P,J1,3*%
%TO.N,+5P*%
X95682000Y-98603000D03*
%TO.P,J1,2*%
%TO.N,GND1*%
X93142000Y-98603000D03*
D12*
%TO.P,J1,1*%
%TO.N,+5V*%
X90602000Y-98603000D03*
%TD*%
D13*
%TO.P,U1,1*%
%TO.N,GND2*%
X109271000Y-86157000D03*
%TO.P,U1,3*%
%TO.N,+5VP*%
X104671000Y-86157000D03*
%TO.P,U1,2*%
%TO.N,+3.3VP*%
X106971000Y-86157000D03*
D14*
X106971000Y-92457000D03*
%TD*%
D15*
%TO.P,PS1,1*%
%TO.N,GND1*%
X93396000Y-86157000D03*
D16*
%TO.P,PS1,2*%
%TO.N,+5V*%
X95936000Y-86157000D03*
%TO.P,PS1,3*%
%TO.N,GND2*%
X98476000Y-86157000D03*
%TO.P,PS1,4*%
%TO.N,+5VP*%
X101016000Y-86157000D03*
%TD*%
%TO.P,C16,2*%
%TO.N,+3.3VP*%
%TA.AperFunction,SMDPad,CuDef*%
G36*
G01*
X106561000Y-96440000D02*
X106561000Y-95940000D01*
G75*
G02*
X106786000Y-95715000I225000J0D01*
G01*
X107236000Y-95715000D01*
G75*
G02*
X107461000Y-95940000I0J-225000D01*
G01*
X107461000Y-96440000D01*
G75*
G02*
X107236000Y-96665000I-225000J0D01*
G01*
X106786000Y-96665000D01*
G75*
G02*
X106561000Y-96440000I0J225000D01*
G01*
G37*
%TD.AperFunction*%
%TO.P,C16,1*%
%TO.N,GND2*%
%TA.AperFunction,SMDPad,CuDef*%
G36*
G01*
X105011000Y-96440000D02*
X105011000Y-95940000D01*
G75*
G02*
X105236000Y-95715000I225000J0D01*
G01*
X105686000Y-95715000D01*
G75*
G02*
X105911000Y-95940000I0J-225000D01*
G01*
X105911000Y-96440000D01*
G75*
G02*
X105686000Y-96665000I-225000J0D01*
G01*
X105236000Y-96665000D01*
G75*
G02*
X105011000Y-96440000I0J225000D01*
G01*
G37*
%TD.AperFunction*%
%TD*%
%TO.P,C15,2*%
%TO.N,+3.3VP*%
%TA.AperFunction,SMDPad,CuDef*%
G36*
G01*
X106535000Y-94789000D02*
X106535000Y-94289000D01*
G75*
G02*
X106760000Y-94064000I225000J0D01*
G01*
X107210000Y-94064000D01*
G75*
G02*
X107435000Y-94289000I0J-225000D01*
G01*
X107435000Y-94789000D01*
G75*
G02*
X107210000Y-95014000I-225000J0D01*
G01*
X106760000Y-95014000D01*
G75*
G02*
X106535000Y-94789000I0J225000D01*
G01*
G37*
%TD.AperFunction*%
%TO.P,C15,1*%
%TO.N,GND2*%
%TA.AperFunction,SMDPad,CuDef*%
G36*
G01*
X104985000Y-94789000D02*
X104985000Y-94289000D01*
G75*
G02*
X105210000Y-94064000I225000J0D01*
G01*
X105660000Y-94064000D01*
G75*
G02*
X105885000Y-94289000I0J-225000D01*
G01*
X105885000Y-94789000D01*
G75*
G02*
X105660000Y-95014000I-225000J0D01*
G01*
X105210000Y-95014000D01*
G75*
G02*
X104985000Y-94789000I0J225000D01*
G01*
G37*
%TD.AperFunction*%
%TD*%
%TO.P,C8,2*%
%TO.N,GND1*%
%TA.AperFunction,SMDPad,CuDef*%
G36*
G01*
X95914500Y-96199000D02*
X95914500Y-94149000D01*
G75*
G02*
X96164500Y-93899000I250000J0D01*
G01*
X97739500Y-93899000D01*
G75*
G02*
X97989500Y-94149000I0J-250000D01*
G01*
X97989500Y-96199000D01*
G75*
G02*
X97739500Y-96449000I-250000J0D01*
G01*
X96164500Y-96449000D01*
G75*
G02*
X95914500Y-96199000I0J250000D01*
G01*
G37*
%TD.AperFunction*%
%TO.P,C8,1*%
%TO.N,+5P*%
%TA.AperFunction,SMDPad,CuDef*%
G36*
G01*
X89689500Y-96199000D02*
X89689500Y-94149000D01*
G75*
G02*
X89939500Y-93899000I250000J0D01*
G01*
X91514500Y-93899000D01*
G75*
G02*
X91764500Y-94149000I0J-250000D01*
G01*
X91764500Y-96199000D01*
G75*
G02*
X91514500Y-96449000I-250000J0D01*
G01*
X89939500Y-96449000D01*
G75*
G02*
X89689500Y-96199000I0J250000D01*
G01*
G37*
%TD.AperFunction*%
%TD*%
%TO.P,C7,2*%
%TO.N,GND1*%
%TA.AperFunction,SMDPad,CuDef*%
G36*
G01*
X95916500Y-91246000D02*
X95916500Y-89196000D01*
G75*
G02*
X96166500Y-88946000I250000J0D01*
G01*
X97741500Y-88946000D01*
G75*
G02*
X97991500Y-89196000I0J-250000D01*
G01*
X97991500Y-91246000D01*
G75*
G02*
X97741500Y-91496000I-250000J0D01*
G01*
X96166500Y-91496000D01*
G75*
G02*
X95916500Y-91246000I0J250000D01*
G01*
G37*
%TD.AperFunction*%
%TO.P,C7,1*%
%TO.N,+5P*%
%TA.AperFunction,SMDPad,CuDef*%
G36*
G01*
X89691500Y-91246000D02*
X89691500Y-89196000D01*
G75*
G02*
X89941500Y-88946000I250000J0D01*
G01*
X91516500Y-88946000D01*
G75*
G02*
X91766500Y-89196000I0J-250000D01*
G01*
X91766500Y-91246000D01*
G75*
G02*
X91516500Y-91496000I-250000J0D01*
G01*
X89941500Y-91496000D01*
G75*
G02*
X89691500Y-91246000I0J250000D01*
G01*
G37*
%TD.AperFunction*%
%TD*%
D17*
%TO.N,+5P*%
X92888000Y-94156392D03*
D18*
X90221000Y-87554000D03*
D17*
X94919998Y-96317000D03*
D18*
%TO.N,+5VP*%
X104671000Y-86157000D03*
X102540000Y-90093990D03*
%TO.N,+5V*%
X93245964Y-95959036D03*
%TO.N,GND2*%
X109271000Y-86157000D03*
X103810000Y-91364000D03*
D17*
%TO.N,Net-(D1-Pad5)*%
X93523000Y-92634000D03*
X96952000Y-93142000D03*
%TD*%
D19*
%TO.N,+5P*%
X90729000Y-91997392D02*
X90729000Y-90221000D01*
X92888000Y-94156392D02*
X90729000Y-91997392D01*
X92888000Y-94156392D02*
X93453685Y-94156392D01*
X93453685Y-94156392D02*
X94919998Y-95622705D01*
X94919998Y-95622705D02*
X94919998Y-96317000D01*
X94919998Y-97840998D02*
X95682000Y-98603000D01*
X94919998Y-96317000D02*
X94919998Y-97840998D01*
X91997392Y-95047000D02*
X92888000Y-94156392D01*
X90729000Y-95047000D02*
X91997392Y-95047000D01*
X90729000Y-88062000D02*
X90221000Y-87554000D01*
X90729000Y-90221000D02*
X90729000Y-88062000D01*
%TO.N,GND1*%
X93396000Y-86663000D02*
X96954000Y-90221000D01*
X93396000Y-86157000D02*
X93396000Y-86663000D01*
X96954000Y-90221000D02*
X97952001Y-91219001D01*
X97952001Y-91219001D02*
X97952001Y-94048999D01*
X97952001Y-94048999D02*
X96954000Y-95047000D01*
%TO.N,+5VP*%
X103302000Y-94793000D02*
X102540000Y-94031000D01*
X103302000Y-98603000D02*
X103302000Y-94793000D01*
X102540000Y-94031000D02*
X102540000Y-90093990D01*
D20*
%TO.N,+3.3VP*%
X106971000Y-86157000D02*
X106971000Y-92457000D01*
D19*
X106971000Y-94525000D02*
X106985000Y-94539000D01*
X106971000Y-92457000D02*
X106971000Y-94525000D01*
X106985000Y-96164000D02*
X107011000Y-96190000D01*
X106985000Y-94539000D02*
X106985000Y-96164000D01*
X108382000Y-97561000D02*
X107011000Y-96190000D01*
X108382000Y-98603000D02*
X108382000Y-97561000D01*
%TO.N,+5V*%
X90602000Y-98603000D02*
X93245964Y-95959036D01*
%TO.N,GND2*%
X105461000Y-94565000D02*
X105435000Y-94539000D01*
X105461000Y-96190000D02*
X105461000Y-94565000D01*
X105461000Y-98222000D02*
X105842000Y-98603000D01*
X105461000Y-96190000D02*
X105461000Y-98222000D01*
X104985000Y-94539000D02*
X105435000Y-94539000D01*
X103810000Y-93364000D02*
X104985000Y-94539000D01*
X103810000Y-91364000D02*
X103810000Y-93364000D01*
D21*
%TO.N,Net-(D1-Pad5)*%
X93523000Y-92634000D02*
X96444000Y-92634000D01*
X96444000Y-92634000D02*
X96952000Y-93142000D01*
%TD*%
M02*
