%TF.GenerationSoftware,KiCad,Pcbnew,(5.1.10)-1*%
%TF.CreationDate,2022-01-17T16:40:02+07:00*%
%TF.ProjectId,DC5V_DC5V3V3,44433556-5f44-4433-9556-3356332e6b69,rev?*%
%TF.SameCoordinates,Original*%
%TF.FileFunction,Legend,Top*%
%TF.FilePolarity,Positive*%
%FSLAX46Y46*%
G04 Gerber Fmt 4.6, Leading zero omitted, Abs format (unit mm)*
G04 Created by KiCad (PCBNEW (5.1.10)-1) date 2022-01-17 16:40:02*
%MOMM*%
%LPD*%
G01*
G04 APERTURE LIST*
%ADD10C,0.120000*%
%ADD11C,0.150000*%
%ADD12O,1.700000X1.700000*%
%ADD13R,1.700000X1.700000*%
%ADD14R,1.500000X2.000000*%
%ADD15R,3.800000X2.000000*%
%ADD16R,1.750000X2.250000*%
%ADD17O,1.750000X2.250000*%
G04 APERTURE END LIST*
D10*
%TO.C,U1*%
X110381000Y-85207000D02*
X110381000Y-91217000D01*
X103561000Y-87457000D02*
X103561000Y-91217000D01*
X110381000Y-91217000D02*
X109121000Y-91217000D01*
X103561000Y-91217000D02*
X104821000Y-91217000D01*
%TO.C,PS1*%
X91196000Y-81067000D02*
X102966000Y-81067000D01*
X91196000Y-81067000D02*
X91196000Y-87407000D01*
X91196000Y-87407000D02*
X102966000Y-87407000D01*
X102966000Y-81067000D02*
X102966000Y-87407000D01*
X90946000Y-86457000D02*
X90946000Y-87657000D01*
X90946000Y-87657000D02*
X92146000Y-87657000D01*
%TO.C,C16*%
X106095420Y-96700000D02*
X106376580Y-96700000D01*
X106095420Y-95680000D02*
X106376580Y-95680000D01*
%TO.C,C15*%
X106069420Y-95049000D02*
X106350580Y-95049000D01*
X106069420Y-94029000D02*
X106350580Y-94029000D01*
%TO.C,C8*%
X89429500Y-97434000D02*
X97489500Y-97434000D01*
X89429500Y-92914000D02*
X89429500Y-97434000D01*
X97489500Y-92914000D02*
X89429500Y-92914000D01*
%TO.C,C7*%
X89431500Y-92481000D02*
X97491500Y-92481000D01*
X89431500Y-87961000D02*
X89431500Y-92481000D01*
X97491500Y-87961000D02*
X89431500Y-87961000D01*
%TO.C,U1*%
D11*
X103629380Y-93218904D02*
X104438904Y-93218904D01*
X104534142Y-93171285D01*
X104581761Y-93123666D01*
X104629380Y-93028428D01*
X104629380Y-92837952D01*
X104581761Y-92742714D01*
X104534142Y-92695095D01*
X104438904Y-92647476D01*
X103629380Y-92647476D01*
X104629380Y-91647476D02*
X104629380Y-92218904D01*
X104629380Y-91933190D02*
X103629380Y-91933190D01*
X103772238Y-92028428D01*
X103867476Y-92123666D01*
X103915095Y-92218904D01*
%TO.C,PS1*%
X90800380Y-83561285D02*
X89800380Y-83561285D01*
X89800380Y-83180333D01*
X89848000Y-83085095D01*
X89895619Y-83037476D01*
X89990857Y-82989857D01*
X90133714Y-82989857D01*
X90228952Y-83037476D01*
X90276571Y-83085095D01*
X90324190Y-83180333D01*
X90324190Y-83561285D01*
X90752761Y-82608904D02*
X90800380Y-82466047D01*
X90800380Y-82227952D01*
X90752761Y-82132714D01*
X90705142Y-82085095D01*
X90609904Y-82037476D01*
X90514666Y-82037476D01*
X90419428Y-82085095D01*
X90371809Y-82132714D01*
X90324190Y-82227952D01*
X90276571Y-82418428D01*
X90228952Y-82513666D01*
X90181333Y-82561285D01*
X90086095Y-82608904D01*
X89990857Y-82608904D01*
X89895619Y-82561285D01*
X89848000Y-82513666D01*
X89800380Y-82418428D01*
X89800380Y-82180333D01*
X89848000Y-82037476D01*
X90800380Y-81085095D02*
X90800380Y-81656523D01*
X90800380Y-81370809D02*
X89800380Y-81370809D01*
X89943238Y-81466047D01*
X90038476Y-81561285D01*
X90086095Y-81656523D01*
%TO.C,C16*%
X108374142Y-96547142D02*
X108326523Y-96594761D01*
X108183666Y-96642380D01*
X108088428Y-96642380D01*
X107945571Y-96594761D01*
X107850333Y-96499523D01*
X107802714Y-96404285D01*
X107755095Y-96213809D01*
X107755095Y-96070952D01*
X107802714Y-95880476D01*
X107850333Y-95785238D01*
X107945571Y-95690000D01*
X108088428Y-95642380D01*
X108183666Y-95642380D01*
X108326523Y-95690000D01*
X108374142Y-95737619D01*
X109326523Y-96642380D02*
X108755095Y-96642380D01*
X109040809Y-96642380D02*
X109040809Y-95642380D01*
X108945571Y-95785238D01*
X108850333Y-95880476D01*
X108755095Y-95928095D01*
X110183666Y-95642380D02*
X109993190Y-95642380D01*
X109897952Y-95690000D01*
X109850333Y-95737619D01*
X109755095Y-95880476D01*
X109707476Y-96070952D01*
X109707476Y-96451904D01*
X109755095Y-96547142D01*
X109802714Y-96594761D01*
X109897952Y-96642380D01*
X110088428Y-96642380D01*
X110183666Y-96594761D01*
X110231285Y-96547142D01*
X110278904Y-96451904D01*
X110278904Y-96213809D01*
X110231285Y-96118571D01*
X110183666Y-96070952D01*
X110088428Y-96023333D01*
X109897952Y-96023333D01*
X109802714Y-96070952D01*
X109755095Y-96118571D01*
X109707476Y-96213809D01*
%TO.C,C15*%
X108348142Y-94896142D02*
X108300523Y-94943761D01*
X108157666Y-94991380D01*
X108062428Y-94991380D01*
X107919571Y-94943761D01*
X107824333Y-94848523D01*
X107776714Y-94753285D01*
X107729095Y-94562809D01*
X107729095Y-94419952D01*
X107776714Y-94229476D01*
X107824333Y-94134238D01*
X107919571Y-94039000D01*
X108062428Y-93991380D01*
X108157666Y-93991380D01*
X108300523Y-94039000D01*
X108348142Y-94086619D01*
X109300523Y-94991380D02*
X108729095Y-94991380D01*
X109014809Y-94991380D02*
X109014809Y-93991380D01*
X108919571Y-94134238D01*
X108824333Y-94229476D01*
X108729095Y-94277095D01*
X110205285Y-93991380D02*
X109729095Y-93991380D01*
X109681476Y-94467571D01*
X109729095Y-94419952D01*
X109824333Y-94372333D01*
X110062428Y-94372333D01*
X110157666Y-94419952D01*
X110205285Y-94467571D01*
X110252904Y-94562809D01*
X110252904Y-94800904D01*
X110205285Y-94896142D01*
X110157666Y-94943761D01*
X110062428Y-94991380D01*
X109824333Y-94991380D01*
X109729095Y-94943761D01*
X109681476Y-94896142D01*
%TO.C,C8*%
X99341142Y-95340666D02*
X99388761Y-95388285D01*
X99436380Y-95531142D01*
X99436380Y-95626380D01*
X99388761Y-95769238D01*
X99293523Y-95864476D01*
X99198285Y-95912095D01*
X99007809Y-95959714D01*
X98864952Y-95959714D01*
X98674476Y-95912095D01*
X98579238Y-95864476D01*
X98484000Y-95769238D01*
X98436380Y-95626380D01*
X98436380Y-95531142D01*
X98484000Y-95388285D01*
X98531619Y-95340666D01*
X98864952Y-94769238D02*
X98817333Y-94864476D01*
X98769714Y-94912095D01*
X98674476Y-94959714D01*
X98626857Y-94959714D01*
X98531619Y-94912095D01*
X98484000Y-94864476D01*
X98436380Y-94769238D01*
X98436380Y-94578761D01*
X98484000Y-94483523D01*
X98531619Y-94435904D01*
X98626857Y-94388285D01*
X98674476Y-94388285D01*
X98769714Y-94435904D01*
X98817333Y-94483523D01*
X98864952Y-94578761D01*
X98864952Y-94769238D01*
X98912571Y-94864476D01*
X98960190Y-94912095D01*
X99055428Y-94959714D01*
X99245904Y-94959714D01*
X99341142Y-94912095D01*
X99388761Y-94864476D01*
X99436380Y-94769238D01*
X99436380Y-94578761D01*
X99388761Y-94483523D01*
X99341142Y-94435904D01*
X99245904Y-94388285D01*
X99055428Y-94388285D01*
X98960190Y-94435904D01*
X98912571Y-94483523D01*
X98864952Y-94578761D01*
%TO.C,C7*%
X99341142Y-90387666D02*
X99388761Y-90435285D01*
X99436380Y-90578142D01*
X99436380Y-90673380D01*
X99388761Y-90816238D01*
X99293523Y-90911476D01*
X99198285Y-90959095D01*
X99007809Y-91006714D01*
X98864952Y-91006714D01*
X98674476Y-90959095D01*
X98579238Y-90911476D01*
X98484000Y-90816238D01*
X98436380Y-90673380D01*
X98436380Y-90578142D01*
X98484000Y-90435285D01*
X98531619Y-90387666D01*
X98436380Y-90054333D02*
X98436380Y-89387666D01*
X99436380Y-89816238D01*
%TD*%
%LPC*%
D12*
%TO.C,J2*%
X108382000Y-98603000D03*
X105842000Y-98603000D03*
D13*
X103302000Y-98603000D03*
%TD*%
D12*
%TO.C,J1*%
X98222000Y-98603000D03*
X95682000Y-98603000D03*
X93142000Y-98603000D03*
D13*
X90602000Y-98603000D03*
%TD*%
D14*
%TO.C,U1*%
X109271000Y-86157000D03*
X104671000Y-86157000D03*
X106971000Y-86157000D03*
D15*
X106971000Y-92457000D03*
%TD*%
D16*
%TO.C,PS1*%
X93396000Y-86157000D03*
D17*
X95936000Y-86157000D03*
X98476000Y-86157000D03*
X101016000Y-86157000D03*
%TD*%
%TO.C,C16*%
G36*
G01*
X106561000Y-96440000D02*
X106561000Y-95940000D01*
G75*
G02*
X106786000Y-95715000I225000J0D01*
G01*
X107236000Y-95715000D01*
G75*
G02*
X107461000Y-95940000I0J-225000D01*
G01*
X107461000Y-96440000D01*
G75*
G02*
X107236000Y-96665000I-225000J0D01*
G01*
X106786000Y-96665000D01*
G75*
G02*
X106561000Y-96440000I0J225000D01*
G01*
G37*
G36*
G01*
X105011000Y-96440000D02*
X105011000Y-95940000D01*
G75*
G02*
X105236000Y-95715000I225000J0D01*
G01*
X105686000Y-95715000D01*
G75*
G02*
X105911000Y-95940000I0J-225000D01*
G01*
X105911000Y-96440000D01*
G75*
G02*
X105686000Y-96665000I-225000J0D01*
G01*
X105236000Y-96665000D01*
G75*
G02*
X105011000Y-96440000I0J225000D01*
G01*
G37*
%TD*%
%TO.C,C15*%
G36*
G01*
X106535000Y-94789000D02*
X106535000Y-94289000D01*
G75*
G02*
X106760000Y-94064000I225000J0D01*
G01*
X107210000Y-94064000D01*
G75*
G02*
X107435000Y-94289000I0J-225000D01*
G01*
X107435000Y-94789000D01*
G75*
G02*
X107210000Y-95014000I-225000J0D01*
G01*
X106760000Y-95014000D01*
G75*
G02*
X106535000Y-94789000I0J225000D01*
G01*
G37*
G36*
G01*
X104985000Y-94789000D02*
X104985000Y-94289000D01*
G75*
G02*
X105210000Y-94064000I225000J0D01*
G01*
X105660000Y-94064000D01*
G75*
G02*
X105885000Y-94289000I0J-225000D01*
G01*
X105885000Y-94789000D01*
G75*
G02*
X105660000Y-95014000I-225000J0D01*
G01*
X105210000Y-95014000D01*
G75*
G02*
X104985000Y-94789000I0J225000D01*
G01*
G37*
%TD*%
%TO.C,C8*%
G36*
G01*
X95914500Y-96199000D02*
X95914500Y-94149000D01*
G75*
G02*
X96164500Y-93899000I250000J0D01*
G01*
X97739500Y-93899000D01*
G75*
G02*
X97989500Y-94149000I0J-250000D01*
G01*
X97989500Y-96199000D01*
G75*
G02*
X97739500Y-96449000I-250000J0D01*
G01*
X96164500Y-96449000D01*
G75*
G02*
X95914500Y-96199000I0J250000D01*
G01*
G37*
G36*
G01*
X89689500Y-96199000D02*
X89689500Y-94149000D01*
G75*
G02*
X89939500Y-93899000I250000J0D01*
G01*
X91514500Y-93899000D01*
G75*
G02*
X91764500Y-94149000I0J-250000D01*
G01*
X91764500Y-96199000D01*
G75*
G02*
X91514500Y-96449000I-250000J0D01*
G01*
X89939500Y-96449000D01*
G75*
G02*
X89689500Y-96199000I0J250000D01*
G01*
G37*
%TD*%
%TO.C,C7*%
G36*
G01*
X95916500Y-91246000D02*
X95916500Y-89196000D01*
G75*
G02*
X96166500Y-88946000I250000J0D01*
G01*
X97741500Y-88946000D01*
G75*
G02*
X97991500Y-89196000I0J-250000D01*
G01*
X97991500Y-91246000D01*
G75*
G02*
X97741500Y-91496000I-250000J0D01*
G01*
X96166500Y-91496000D01*
G75*
G02*
X95916500Y-91246000I0J250000D01*
G01*
G37*
G36*
G01*
X89691500Y-91246000D02*
X89691500Y-89196000D01*
G75*
G02*
X89941500Y-88946000I250000J0D01*
G01*
X91516500Y-88946000D01*
G75*
G02*
X91766500Y-89196000I0J-250000D01*
G01*
X91766500Y-91246000D01*
G75*
G02*
X91516500Y-91496000I-250000J0D01*
G01*
X89941500Y-91496000D01*
G75*
G02*
X89691500Y-91246000I0J250000D01*
G01*
G37*
%TD*%
M02*
